<svg width="540" height="281" viewBox="0 0 540 281" xmlns="http://www.w3.org/2000/svg"><title>mercedes</title><desc>Created with Sketch.</desc><g fill="#222"><path d="M270 .504c-48.531 0-87.874 39.343-87.874 87.874 0 48.531 39.343 87.874 87.874 87.874 48.531 0 87.874-39.344 87.874-87.874 0-48.531-39.343-87.874-87.874-87.874zm-71.926 46.567c14.65-25.409 41.661-41.204 70.962-41.585l-11.369 75.311-60.051 48.529c-14.422-25.562-14.269-56.846.458-82.255zm72.255 124.628c-29.377.152-56.617-15.261-71.648-40.517l71.343-29.529 71.649 29.071c-14.88 25.333-42.044 40.899-71.344 40.975zm11.673-89.903l-10.835-76.303c29.224.457 56.007 16.176 70.657 41.433 14.726 25.256 15.032 56.312.916 81.873l-60.738-47.003zM346.333 252.973h20.056v4.641h-20.056v-4.641zm-333.537-28.154l-1.795 46.585v.808c0 3.949 1.167 4.757 7.45 5.206v2.155c-4.577-.36-6.372-.449-8.886-.449-2.513 0-4.308.089-8.975.449v-2.155c6.283-.448 7.18-1.167 7.36-6.014l1.885-44.071v-.539c0-4.13-1.257-5.027-7.45-5.385v-2.244c3.5.268 4.846.359 7.36.359 3.322 0 5.116-.091 8.527-.449l16.695 45.417 16.964-45.417c4.039.358 5.924.449 8.617.449 2.244 0 3.68-.091 7.091-.359v2.244c-6.103.358-7.45 1.256-7.45 5.295v.629l.987 44.071c.09 4.847.898 5.565 7.36 6.014v2.155c-5.655-.54-7.809-.719-11.22-.719-3.411 0-5.565.18-11.22.719v-2.155c6.103-.359 7.45-1.346 7.45-5.565v-.449l-.808-46.495-14.81 40.032-1.077 2.962-1.257 3.321-1.167 3.411-.987 2.962h-1.347l-.986-2.873-1.257-3.5-1.256-3.5-1.077-3.142-14.721-39.763zm67.402 28.993c.898-10.322 4.309-15.618 10.054-15.618 5.833 0 8.796 5.027 9.335 15.618h-19.389zm11.669 23.516c-8.168 0-11.758-6.283-11.848-20.286h26.748c-.18-13.823-5.834-21.183-16.426-21.183-10.771 0-17.503 8.707-17.503 22.53 0 13.822 6.732 21.902 18.311 21.902 8.796 0 14.541-5.477 15.708-14.722h-3.59c-1.078 7.63-5.027 11.759-11.4 11.759zm20.244-38.147v-1.616c5.116-.448 8.168-.987 11.848-2.065.449 3.321.628 4.757.808 7.45v.987c1.974-5.116 5.834-8.079 10.501-8.079 4.488 0 7.81 2.962 7.81 7.271 0 2.603-1.526 4.309-3.77 4.309-2.065 0-3.68-1.257-3.68-3.052 0-.18.089-.538.179-.898l.18-.898v-.807c0-1.257-1.077-2.155-2.693-2.155-4.667 0-7.629 5.655-7.629 14.541v18.76c0 3.859.898 4.578 6.372 4.847v1.796c-4.936-.45-6.821-.54-9.963-.54-3.232 0-5.116.09-10.053.54v-1.796c5.476-.269 6.463-.988 6.463-4.847v-29.351c-.089-3.86-.539-4.308-5.206-4.398h-1.167v.001zm65.302-4.128v14.809h-1.975c-1.616-7.809-4.936-11.579-10.412-11.579-6.731 0-10.681 7.27-10.681 20.106 0 12.566 3.501 18.939 10.412 18.939 5.566 0 8.886-3.95 9.964-11.848h3.68c-1.167 9.604-6.283 14.811-14.361 14.811-10.412 0-17.504-8.798-17.504-21.902 0-13.374 7.181-22.53 17.773-22.53 3.859 0 6.283.987 9.156 3.77l2.423-4.577h1.525v.001zm14.74 18.759c.898-10.322 4.309-15.618 10.053-15.618 5.834 0 8.796 5.027 9.335 15.618h-19.388zm11.669 23.516c-8.168 0-11.759-6.283-11.849-20.286h26.748c-.18-13.823-5.834-21.183-16.425-21.183-10.772 0-17.503 8.707-17.503 22.53 0 13.822 6.732 21.902 18.311 21.902 8.796 0 14.541-5.477 15.707-14.722h-3.59c-1.077 7.63-5.026 11.759-11.399 11.759zm39.758.538c-6.463 0-9.873-6.731-9.873-19.567 0-13.015 3.141-19.388 9.604-19.388 6.642 0 10.053 6.821 10.053 20.017-.001 12.476-3.323 18.938-9.784 18.938zm16.874-7.629v-51.821c-4.488 1.196-8.528 1.915-13.554 2.454v1.526c5.655 0 6.372.628 6.372 5.296v15.708c-3.321-5.386-5.924-7.002-10.771-7.002-9.604 0-16.336 9.066-16.336 21.992 0 12.925 6.822 21.992 16.605 21.992 5.116 0 8.618-2.334 11.13-7.362.36 3.411.36 3.769 1.258 7.182 3.68-1.168 5.206-1.527 10.501-2.155l1.346-.18v-1.526c-6.013-.18-6.551-.628-6.551-6.104zm17.312-16.425c.897-10.322 4.308-15.618 10.052-15.618 5.835 0 8.796 5.027 9.335 15.618h-19.387zm11.669 23.516c-8.169 0-11.759-6.283-11.849-20.286h26.749c-.18-13.823-5.835-21.183-16.426-21.183-10.772 0-17.504 8.707-17.504 22.53 0 13.822 6.732 21.902 18.31 21.902 8.797 0 14.542-5.477 15.708-14.722h-3.59c-1.076 7.63-5.026 11.759-11.398 11.759zm22.518 3.054v-14.992l1.973-.09c1.617 8.168 5.386 12.117 11.67 12.117 5.296 0 9.245-3.501 9.245-8.078 0-3.052-1.705-5.116-6.103-7.091l-3.413-1.526-4.128-1.884c-6.553-3.052-8.617-5.566-8.617-10.771 0-7.091 5.566-11.938 13.464-11.938 3.502 0 6.104.809 9.156 2.872l1.526-3.68h1.616v13.912h-2.066c-.808-7.18-3.769-10.591-9.424-10.591-4.757 0-8.437 3.231-8.437 7.45 0 3.59 1.345 4.757 9.514 8.347l3.769 1.616c6.822 2.961 9.245 5.833 9.245 11.129 0 7.54-6.012 12.926-14.451 12.926-4.128 0-7.36-1.078-10.77-3.77l-2.155 4.041h-1.614v.001zm78.903-30.968c4.757 0 7.45.807 9.514 2.872 2.065 2.064 3.231 5.924 3.231 10.232 0 8.976-4.488 14.003-12.477 14.003h-3.231c-4.757 0-5.566-.718-5.566-4.668v-22.439h8.529zm-8.528-27.197h7.629c7.54 0 10.861 3.68 10.861 12.027 0 4.128-.986 7.091-2.961 9.425-1.976 2.244-4.398 2.962-9.425 2.962h-6.104v-24.414zm26.479 11.848c0-4.668-1.974-8.797-5.385-11.4-3.053-2.243-6.553-3.231-12.387-3.231h-23.607v2.245c6.463.359 7.36 1.078 7.36 5.924v43.534c0 4.847-.718 5.475-7.36 6.014v2.154h22.708c6.643 0 10.233-.808 14.002-3.142 4.49-2.872 7.451-8.348 7.451-14.002 0-4.848-2.064-9.245-5.566-11.938-1.885-1.435-3.859-2.244-7.091-2.872 6.465-2.426 9.875-7.003 9.875-13.286zm17.433 19.747c.899-10.322 4.309-15.618 10.054-15.618 5.834 0 8.797 5.027 9.335 15.618h-19.389zm11.671 23.516c-8.169 0-11.759-6.283-11.85-20.286h26.748c-.179-13.823-5.834-21.183-16.424-21.183-10.772 0-17.503 8.707-17.503 22.53 0 13.822 6.732 21.902 18.31 21.902 8.796 0 14.541-5.477 15.708-14.722h-3.591c-1.076 7.63-5.026 11.759-11.398 11.759zm19.65-37.788v-1.526c5.207-.718 8.259-1.436 11.848-2.693.45 2.064.718 4.398.899 7.809 3.23-4.847 6.91-7.001 12.117-7.001 5.386 0 10.052 2.783 11.848 7.18.897 2.154 1.346 4.668 1.346 8.078v21.543c0 3.859.899 4.578 6.373 4.847v1.796c-4.757-.45-6.553-.54-9.784-.54-3.322 0-5.116.09-9.783.54v-1.796c4.847-.18 6.014-1.077 6.014-4.667v-21.991c0-7.81-2.333-10.951-8.078-10.951-6.104 0-9.335 3.859-9.335 11.219v21.722c0 3.59 1.166 4.488 5.833 4.667v1.796c-4.668-.45-6.462-.54-9.693-.54-3.142 0-5.027.09-9.694.54v-1.796c5.475-.269 6.372-.988 6.372-4.847v-29.081c-.089-3.68-.627-4.219-5.116-4.219-.269.001-.718-.089-1.167-.089zm47.919 39.763l24.326-40.032h-11.041c-5.835 0-7.27 1.257-10.501 9.335h-1.796l2.064-11.668h30.878l-24.414 40.032h10.501c6.104 0 8.617-2.424 11.309-10.591h1.887l-2.335 12.925h-30.878v-.001z"/></g></svg>
